<?xml version="1.0" encoding="utf-8"?>
<!-- Generator: Adobe Illustrator 16.0.0, SVG Export Plug-In . SVG Version: 6.00 Build 0)  -->
<!DOCTYPE svg PUBLIC "-//W3C//DTD SVG 1.1//EN" "http://www.w3.org/Graphics/SVG/1.1/DTD/svg11.dtd">
<svg xmlns="http://www.w3.org/2000/svg" xmlns:xlink="http://www.w3.org/1999/xlink" version="1.1" id="Layer_1" x="0px" y="0px" width="75px" height="75px" viewBox="0 0 75 75" xml:space="preserve">
<path fill="#168363" d="M44.168,61.25l-3.75-9.75c0.25-0.25,0.418-0.5,0.582-0.75l2.668-5.082c12.5,1.168,18.75,6.168,19.418,15.668  H44.168V61.25z M37.832,65.668L35,62.75l2.832-7.332l2.832,7.332L37.832,65.668z M31.918,45.582l2.668,5.082  c0.168,0.332,0.418,0.582,0.668,0.832l-3.75,9.75H12.5C13.418,50.418,22.582,46.582,31.918,45.582z M21.918,27.168  c5.668-0.582,9-4.5,10.832-8.918c0.75,1.668,1.75,3.25,3.082,4.582c3,3,7.168,4.5,12.5,4.5h5.332  c-0.832,7.418-6.832,13.332-14.332,14.082c-0.5,0-1,0-1.582,0c-0.5,0-1,0-1.5,0C28.75,40.75,22.668,34.75,21.918,27.168z   M30.668,11.25c-0.582,4.082-2.418,11.082-8.668,12C22.75,18,26.082,13.582,30.668,11.25z M53.668,23.582h-5.336  c-4.25,0-7.582-1.168-9.832-3.418c-2.75-2.75-3.582-6.918-3.75-10.332c1-0.168,2-0.332,3.082-0.332  C46,9.582,52.75,15.668,53.668,23.582z M36.418,45.918h2.75L37.75,48.5L36.418,45.918z M48.332,42.332  c5.582-3.5,9.332-9.75,9.332-16.832c0-10.918-8.918-19.832-19.832-19.832C26.914,5.668,18,14.586,18,25.5  c0,7.082,3.75,13.332,9.418,16.832C15.75,44.75,9.168,51.418,8.668,61.668v0.5c0,0.832,0.25,1.582,0.832,2.082  C10,64.75,10.668,65,11.332,65H32l0.082,0.082L36,69.164c0.5,0.5,1.168,0.832,1.918,0.832s1.418-0.25,1.918-0.832l3.918-4.082  L43.836,65h20.582c0.668,0,1.332-0.25,1.75-0.75c0.582-0.582,0.918-1.5,0.918-2.5v-0.582C66.332,50.832,60.082,44.582,48.332,42.332  z"/>
<path fill="#168363" d="M55.082,53.832H48.5c-1.082,0-1.918,0.832-1.918,1.918c0,1.082,0.832,1.918,1.918,1.918h6.582  c1.082,0,1.918-0.832,1.918-1.918C57,54.668,56.082,53.832,55.082,53.832z"/>
</svg>
