<?xml version="1.0" encoding="utf-8"?>
<!-- Generator: Adobe Illustrator 16.0.0, SVG Export Plug-In . SVG Version: 6.00 Build 0)  -->
<!DOCTYPE svg PUBLIC "-//W3C//DTD SVG 1.1//EN" "http://www.w3.org/Graphics/SVG/1.1/DTD/svg11.dtd">
<svg xmlns="http://www.w3.org/2000/svg" xmlns:xlink="http://www.w3.org/1999/xlink" version="1.1" id="Layer_1" x="0px" y="0px" width="75px" height="75px" viewBox="0 0 75 75" xml:space="preserve">
<path fill="#168363" d="M38.281,64.863c-12.156,0-22.445-8.137-25.711-19.246l21.657-21.648c0.277-0.278,0.433-0.653,0.433-1.047  c0-0.391-0.156-0.77-0.433-1.047l-1.532-1.523h13.692l0.004,13.675l-2.125-2.136c-0.02-0.02-0.043-0.036-0.062-0.055  c-0.015-0.012-0.027-0.027-0.047-0.039c-0.023-0.02-0.047-0.035-0.07-0.051c-0.016-0.012-0.031-0.023-0.047-0.035  c-0.023-0.016-0.051-0.031-0.074-0.047c-0.016-0.008-0.031-0.019-0.051-0.031c-0.027-0.016-0.051-0.024-0.078-0.039  c-0.016-0.008-0.035-0.016-0.051-0.024c-0.027-0.011-0.055-0.019-0.082-0.031c-0.015-0.004-0.035-0.012-0.051-0.019  c-0.027-0.008-0.055-0.016-0.082-0.02c-0.02-0.004-0.035-0.008-0.055-0.012c-0.027-0.004-0.055-0.008-0.082-0.011  c-0.02-0.004-0.039-0.008-0.059-0.008c-0.027-0.004-0.051-0.004-0.078-0.004c-0.02,0-0.043-0.004-0.062-0.004  c-0.023,0-0.046,0-0.07,0.004c-0.023,0-0.047,0-0.07,0.004c-0.02,0-0.039,0.004-0.055,0.008c-0.027,0.003-0.059,0.007-0.086,0.011  c-0.008,0-0.015,0.004-0.023,0.004c-0.118,0.024-0.234,0.063-0.344,0.113c-0.012,0.008-0.027,0.012-0.039,0.016  c-0.02,0.012-0.043,0.024-0.062,0.035c-0.02,0.012-0.043,0.024-0.066,0.039c-0.016,0.008-0.027,0.02-0.043,0.032  c-0.027,0.019-0.051,0.035-0.078,0.058c-0.008,0.008-0.02,0.016-0.027,0.024c-0.027,0.023-0.055,0.046-0.086,0.074l-9.372,9.141  l-3.605-3.589c-0.422-0.422-1.059-0.547-1.609-0.317c-0.551,0.227-0.91,0.766-0.91,1.363v18.816c0,0.816,0.66,1.477,1.476,1.477  H46.93c0.598,0,1.132-0.359,1.363-0.91c0.23-0.552,0.105-1.184-0.312-1.609l-3.023-3.055l19.727-19.734  c0.262,1.496,0.398,3.035,0.398,4.609C65.078,52.844,53.055,64.863,38.281,64.863z M38.281,11.273c12,0,22.18,7.926,25.582,18.821  L41.824,52.148c-0.574,0.574-0.578,1.508-0.004,2.086l1.566,1.582h-13.75V42.035l2.148,2.141c0.574,0.57,1.5,0.574,2.078,0.008  l9.336-9.164l3.612,3.628c0.423,0.422,1.06,0.551,1.61,0.324c0.555-0.23,0.914-0.766,0.914-1.368l-0.004-18.73  c0-0.816-0.66-1.477-1.477-1.477H29.117c-0.597,0-1.137,0.36-1.367,0.914c-0.23,0.555-0.102,1.188,0.324,1.61l3.016,3.004  L11.805,42.203c-0.211-1.348-0.321-2.727-0.321-4.133C11.484,23.293,23.508,11.273,38.281,11.273z M38.281,8.32  c-16.402,0-29.75,13.348-29.75,29.75s13.348,29.75,29.75,29.75s29.75-13.348,29.75-29.75S54.684,8.32,38.281,8.32z"/>
</svg>
